<mxfile host="www.draw.io" modified="2019-12-04T11:17:20.366Z" agent="Mozilla/5.0 (X11; Linux x86_64) AppleWebKit/537.36 (KHTML, like Gecko) Chrome/78.0.3904.97 Safari/537.36" etag="inMclX7MYbS-xi6dWwM1" version="12.3.6" type="github" pages="1">
  <diagram id="S3boWNUAbr6cdMEhZepz" name="Page-1">
    <mxGraphModel dx="948" dy="528" grid="1" gridSize="10" guides="1" tooltips="1" connect="1" arrows="1" fold="1" page="1" pageScale="1" pageWidth="850" pageHeight="1100" math="0" shadow="0">
      <root>
        <mxCell id="0"/>
        <mxCell id="1" parent="0"/>
        <mxCell id="bAPzMN1ctLrp0MAVzlvX-1" value="CarController" style="swimlane;fontStyle=1;align=center;verticalAlign=top;childLayout=stackLayout;horizontal=1;startSize=26;horizontalStack=0;resizeParent=1;resizeParentMax=0;resizeLast=0;collapsible=1;marginBottom=0;" vertex="1" parent="1">
          <mxGeometry x="20" y="136" width="200" height="240" as="geometry"/>
        </mxCell>
        <mxCell id="bAPzMN1ctLrp0MAVzlvX-2" value="+ WORLD_SIZE: Vector&#xa;~ frame: CarView&#xa;~ cars: List&lt;MotorisedVehicle&gt;" style="text;strokeColor=none;fillColor=none;align=left;verticalAlign=top;spacingLeft=4;spacingRight=4;overflow=hidden;rotatable=0;points=[[0,0.5],[1,0.5]];portConstraint=eastwest;" vertex="1" parent="bAPzMN1ctLrp0MAVzlvX-1">
          <mxGeometry y="26" width="200" height="64" as="geometry"/>
        </mxCell>
        <mxCell id="bAPzMN1ctLrp0MAVzlvX-3" value="" style="line;strokeWidth=1;fillColor=none;align=left;verticalAlign=middle;spacingTop=-1;spacingLeft=3;spacingRight=3;rotatable=0;labelPosition=right;points=[];portConstraint=eastwest;" vertex="1" parent="bAPzMN1ctLrp0MAVzlvX-1">
          <mxGeometry y="90" width="200" height="8" as="geometry"/>
        </mxCell>
        <mxCell id="bAPzMN1ctLrp0MAVzlvX-4" value="+ main(String[])&#xa;+ turboOn()&#xa;+ turboOff()&#xa;+ deactivateBed()&#xa;+ activateBed()&#xa;~ startAll()&#xa;~ stopAll()&#xa;~ breakAll(double)&#xa;~ gas(int)" style="text;strokeColor=none;fillColor=none;align=left;verticalAlign=top;spacingLeft=4;spacingRight=4;overflow=hidden;rotatable=0;points=[[0,0.5],[1,0.5]];portConstraint=eastwest;fontStyle=0" vertex="1" parent="bAPzMN1ctLrp0MAVzlvX-1">
          <mxGeometry y="98" width="200" height="142" as="geometry"/>
        </mxCell>
        <mxCell id="bAPzMN1ctLrp0MAVzlvX-5" value="CarView" style="swimlane;fontStyle=1;align=center;verticalAlign=top;childLayout=stackLayout;horizontal=1;startSize=26;horizontalStack=0;resizeParent=1;resizeParentMax=0;resizeLast=0;collapsible=1;marginBottom=0;" vertex="1" parent="1">
          <mxGeometry x="330" y="170" width="160" height="86" as="geometry"/>
        </mxCell>
        <mxCell id="bAPzMN1ctLrp0MAVzlvX-6" value="+ field: type" style="text;strokeColor=none;fillColor=none;align=left;verticalAlign=top;spacingLeft=4;spacingRight=4;overflow=hidden;rotatable=0;points=[[0,0.5],[1,0.5]];portConstraint=eastwest;" vertex="1" parent="bAPzMN1ctLrp0MAVzlvX-5">
          <mxGeometry y="26" width="160" height="26" as="geometry"/>
        </mxCell>
        <mxCell id="bAPzMN1ctLrp0MAVzlvX-7" value="" style="line;strokeWidth=1;fillColor=none;align=left;verticalAlign=middle;spacingTop=-1;spacingLeft=3;spacingRight=3;rotatable=0;labelPosition=right;points=[];portConstraint=eastwest;" vertex="1" parent="bAPzMN1ctLrp0MAVzlvX-5">
          <mxGeometry y="52" width="160" height="8" as="geometry"/>
        </mxCell>
        <mxCell id="bAPzMN1ctLrp0MAVzlvX-8" value="+ method(type): type" style="text;strokeColor=none;fillColor=none;align=left;verticalAlign=top;spacingLeft=4;spacingRight=4;overflow=hidden;rotatable=0;points=[[0,0.5],[1,0.5]];portConstraint=eastwest;" vertex="1" parent="bAPzMN1ctLrp0MAVzlvX-5">
          <mxGeometry y="60" width="160" height="26" as="geometry"/>
        </mxCell>
        <mxCell id="bAPzMN1ctLrp0MAVzlvX-9" style="edgeStyle=orthogonalEdgeStyle;rounded=0;orthogonalLoop=1;jettySize=auto;html=1;exitX=1;exitY=0.5;exitDx=0;exitDy=0;endArrow=open;endFill=0;strokeWidth=2;endSize=11;" edge="1" parent="1" source="bAPzMN1ctLrp0MAVzlvX-2" target="bAPzMN1ctLrp0MAVzlvX-6">
          <mxGeometry relative="1" as="geometry"/>
        </mxCell>
      </root>
    </mxGraphModel>
  </diagram>
</mxfile>
